<mxfile host="app.diagrams.net" modified="2023-11-03T13:35:57.462Z" agent="Mozilla/5.0 (Windows NT 10.0; Win64; x64; rv:109.0) Gecko/20100101 Firefox/119.0" version="22.0.8" etag="SVqicWBIxkmQeiLY0oay" type="github">
  <diagram name="ページ1" id="wHp5NcGf-cHRCsqDA3VT">
    <mxGraphModel>
      <root>
        <mxCell id="0" />
        <mxCell id="1" parent="0" />
      </root>
    </mxGraphModel>
  </diagram>
</mxfile>
